<svg width="30" height="28" xmlns="http://www.w3.org/2000/svg" preserveAspectRatio="xMidYMid meet">
 <metadata>Created by potrace 1.16, written by Peter Selinger 2001-2019</metadata>

 <g>
  <title>background</title>
  <rect fill="none" id="canvas_background" height="3.051709" width="3.183172" y="-1" x="-1"/>
 </g>
 <g>
  <title>Layer 1</title>
  <path fill="#b2b2b2" id="svg_2" d="m14.53397,1.762829c-1.124865,0.204048 -2.203307,1.314976 -2.824661,2.913352c-0.385668,0.9919 -0.514224,1.819428 -0.510653,3.2591c0,0.912548 0.010713,1.031576 0.099988,1.50202c0.260683,1.36032 0.839185,2.590276 1.599808,3.389464c0.724913,0.76518 1.671228,1.16194 2.406854,1.008904c0.942744,-0.19838 1.656944,-0.725504 2.299724,-1.689064c0.596357,-0.901212 0.935602,-1.819428 1.089155,-2.964364c0.132127,-0.986232 0.096417,-2.476916 -0.078562,-3.28744c-0.474943,-2.204852 -1.699796,-3.79756 -3.153193,-4.1093c-0.414236,-0.090688 -0.532079,-0.090688 -0.92846,-0.022672z"/>
  <path fill="#b2b2b2" id="svg_3" d="m5.970712,4.647841c-0.742768,0.31174 -1.442684,1.21862 -1.799784,2.340884c-0.260683,0.82186 -0.32139,2.023476 -0.153553,2.953028c0.242828,1.33198 0.735626,2.244528 1.546243,2.856672l0.274967,0.209716l0.7142,0.017004c0.814188,0.022672 0.96417,-0.022672 1.414116,-0.442104c1.53553,-1.434004 1.835494,-4.61942 0.628496,-6.665568c-0.396381,-0.674492 -0.85704,-1.10526 -1.371264,-1.292304c-0.353529,-0.124696 -0.921318,-0.11336 -1.253421,0.022672z"/>
  <path fill="#999999" id="svg_4" d="m22.71156,4.642173c-0.717771,0.306072 -1.460539,1.292304 -1.789071,2.369224c-0.489227,1.621048 -0.239257,3.644524 0.610641,4.948164c0.260683,0.402428 0.517795,0.663156 0.864182,0.895544c0.210689,0.1417 0.264254,0.153036 0.910605,0.17004c0.778478,0.022672 0.92846,-0.017004 1.331983,-0.36842c0.664206,-0.572468 1.153433,-1.547364 1.364122,-2.714972c0.064278,-0.357084 0.078562,-0.589472 0.078562,-1.156272c0,-0.810524 -0.067849,-1.269632 -0.292822,-1.95546c-0.246399,-0.748176 -0.957028,-1.762748 -1.417687,-2.017808c-0.492798,-0.272064 -1.242708,-0.351416 -1.660515,-0.17004z"/>
  <path fill="#b2b2b2" id="svg_5" d="m4.624445,13.540932c-1.374835,0.833196 -2.521126,1.740076 -2.731815,2.159508c-0.192834,0.385424 -0.332103,0.974896 -0.589215,2.482584c-0.317819,1.847768 -0.307106,2.32388 0.07142,3.083392c0.189263,0.385424 0.3571,0.53846 0.685632,0.612144c0.382097,0.08502 4.599448,0.073684 4.6423,-0.011336c0.021426,-0.039676 0.064278,-0.238056 0.099988,-0.442104c0.21426,-1.263964 0.603499,-3.298776 0.696345,-3.65586c0.078562,-0.289068 0.182121,-0.544128 0.349958,-0.844532c0.442804,-0.79352 0.907034,-1.2753 1.814068,-1.876108c0.60707,-0.39676 0.599928,-0.36842 0.157124,-0.697164c-0.207118,-0.153036 -0.599928,-0.4251 -0.874895,-0.612144c-0.621354,-0.413764 -0.732055,-0.4251 -1.024877,-0.119028c-0.882037,0.901212 -1.560527,0.9919 -2.278298,0.300404c-0.10713,-0.102024 -0.292822,-0.2834 -0.407094,-0.39676c-0.117843,-0.11336 -0.221402,-0.204048 -0.232115,-0.204048c-0.010713,0 -0.182121,0.102024 -0.378526,0.221052z"/>
  <path fill="#b2b2b2" id="svg_6" d="m21.426,13.512592c-0.585644,0.357084 -1.64266,1.065584 -1.664086,1.116596c-0.010713,0.02834 0.153553,0.181376 0.367813,0.34008c1.339125,0.997568 1.399832,1.054248 1.742648,1.604044c0.485656,0.776516 0.564218,1.054248 1.03559,3.593512c0.164266,0.884208 0.314248,1.638052 0.335674,1.67206c0.064278,0.102024 2.567549,0.17004 3.753121,0.102024c1.303415,-0.068016 1.378406,-0.102024 1.685512,-0.753844c0.192834,-0.413764 0.257112,-0.799188 0.228544,-1.36032c-0.039281,-0.719836 -0.42852,-2.970032 -0.632067,-3.65586c-0.167837,-0.561132 -0.364242,-0.82186 -0.978454,-1.292304c-0.567789,-0.442104 -1.839065,-1.309308 -2.153313,-1.468012l-0.185692,-0.102024l-0.342816,0.351416c-0.932031,0.96356 -1.564098,0.96356 -2.474703,0.011336c-0.182121,-0.192712 -0.349958,-0.351416 -0.374955,-0.345748c-0.021426,0.005668 -0.174979,0.090688 -0.342816,0.187044z"/>
  <path fill="#b2b2b2" id="svg_7" d="m11.980705,14.504492c-1.346267,0.872872 -2.742528,1.853436 -3.181761,2.244528c-0.532079,0.470444 -0.74991,1.122264 -1.192714,3.57084c-0.367813,2.04048 -0.446375,2.646956 -0.421378,3.349788c0.014284,0.4251 0.032139,0.527124 0.182121,0.997568c0.192834,0.62348 0.421378,1.008904 0.792762,1.337648l0.24997,0.221052l6.492078,0.02834l6.492078,0.02834l0.32139,-0.249392c0.549934,-0.430768 0.932031,-1.195948 1.053445,-2.1255c0.078562,-0.589472 0.032139,-1.003236 -0.349958,-3.106064c-0.382097,-2.131168 -0.596357,-2.987036 -0.882037,-3.559504c-0.135698,-0.272064 -0.203547,-0.34008 -0.728484,-0.748176c-0.96417,-0.742508 -3.46387,-2.43724 -3.599568,-2.43724c-0.017855,0 -0.182121,0.17004 -0.364242,0.374088c-0.389239,0.447772 -0.946315,0.889876 -1.292702,1.02024c-0.146411,0.05668 -0.396381,0.096356 -0.60707,0.096356c-0.621354,0.005668 -1.174859,-0.323076 -1.846207,-1.093924c-0.189263,-0.221052 -0.367813,-0.39676 -0.39281,-0.391092c-0.024997,0 -0.349958,0.204048 -0.724913,0.442104z"/>
 </g>
</svg>