<svg width="30" height="28" xmlns="http://www.w3.org/2000/svg" preserveAspectRatio="xMidYMid meet">
 <metadata>Created by potrace 1.16, written by Peter Selinger 2001-2019</metadata>

 <g>
  <title>background</title>
  <rect fill="none" id="canvas_background" height="3.051709" width="3.183172" y="-1" x="-1"/>
 </g>
 <g>
  <title>Layer 1</title>
  <path fill="#b2b2b2" id="svg_2" d="m9.386118,0.069817c-0.046872,0.049221 -0.070308,0.962544 -0.082026,2.838411c-0.017577,2.712624 -0.017577,2.772783 -0.140616,2.925915c-0.064449,0.082035 -0.210924,0.207822 -0.316386,0.27345l-0.193347,0.125787l-2.917782,0c-2.853333,0 -2.923641,0 -3.040821,0.10938c-0.11718,0.10938 -0.11718,0.153132 -0.105462,8.110527l0.017577,7.995678l0.140616,0.317202c0.275373,0.645342 0.908145,1.186773 1.617084,1.389126c0.328104,0.092973 0.662067,0.098442 5.278959,0.098442c4.851252,0 4.933278,0 5.062176,-0.10938c0.263655,-0.224229 0.304668,-0.377361 0.228501,-0.836757c-0.093744,-0.563307 -0.076167,-1.58601 0.029295,-2.094627c0.246078,-1.192242 0.773388,-2.138379 1.663956,-3.013419c1.259685,-1.230525 2.777166,-1.853991 4.775085,-1.952433c0.808542,-0.043752 0.814401,-0.043752 0.99603,-0.21876l0.187488,-0.169539l0,-6.962037c0,-6.513579 -0.005859,-6.978444 -0.105462,-7.262832c-0.246078,-0.732846 -0.82026,-1.279746 -1.611225,-1.53132c-0.310527,-0.098442 -0.574182,-0.103911 -5.870718,-0.103911c-4.482135,0 -5.56605,0.016407 -5.612922,0.071097zm9.128322,8.176155c0.621054,0.289857 0.621054,1.099269 0,1.389126c-0.193347,0.092973 -0.597618,0.098442 -5.946885,0.098442c-5.478165,0 -5.753538,-0.005469 -5.946885,-0.103911c-0.23436,-0.114849 -0.46872,-0.453927 -0.46872,-0.683625c0,-0.224229 0.216783,-0.5469 0.462861,-0.678156c0.210924,-0.120318 0.216783,-0.120318 5.952744,-0.120318c5.349267,0 5.753538,0.005469 5.946885,0.098442zm0,3.17202c0.621054,0.289857 0.621054,1.099269 0,1.389126c-0.193347,0.092973 -0.597618,0.098442 -5.946885,0.098442c-5.478165,0 -5.753538,-0.005469 -5.946885,-0.103911c-0.23436,-0.114849 -0.46872,-0.453927 -0.46872,-0.683625c0,-0.224229 0.216783,-0.5469 0.462861,-0.678156c0.210924,-0.120318 0.216783,-0.120318 5.952744,-0.120318c5.349267,0 5.753538,0.005469 5.946885,0.098442zm0.046872,3.308745c0.298809,0.153132 0.433566,0.393768 0.404271,0.738315c-0.017577,0.251574 -0.052731,0.322671 -0.240219,0.49221l-0.210924,0.202353l-5.817987,0.016407c-3.193155,0.005469 -5.870718,0 -5.941026,-0.016407c-0.363258,-0.082035 -0.650349,-0.519555 -0.574182,-0.880509c0.046872,-0.240636 0.339822,-0.552369 0.580041,-0.617997c0.105462,-0.032814 2.548665,-0.049221 5.894154,-0.043752c5.378562,0.010938 5.724243,0.016407 5.905872,0.10938zm-6.632388,3.297807c0.415989,0.284388 0.515592,0.700032 0.269514,1.077393c-0.246078,0.366423 -0.251937,0.366423 -2.935359,0.366423c-2.642409,0 -2.689281,-0.005469 -2.9295,-0.322671c-0.304668,-0.393768 -0.164052,-0.935199 0.304668,-1.14849c0.240219,-0.114849 0.310527,-0.114849 2.689281,-0.103911c2.361177,0.016407 2.443203,0.021876 2.601396,0.131256z"/>
  <path fill="#b2b2b2" id="svg_3" d="m5.325831,2.492584c-1.535058,1.438347 -1.751841,1.657107 -1.751841,1.80477c0,0.344547 0.023436,0.350016 2.003778,0.350016c1.658097,0 1.792854,-0.005469 1.880739,-0.098442c0.087885,-0.087504 0.099603,-0.295326 0.099603,-1.799301c0,-1.826646 0.005859,-1.777425 -0.316386,-1.853991c-0.152334,-0.032814 -0.257796,0.05469 -1.915893,1.596948z"/>
  <path fill="#b2b2b2" id="svg_4" d="m21.033811,17.346388c-1.400301,0.131256 -2.882628,0.880509 -3.767337,1.892274c-1.294839,1.47663 -1.663956,3.363435 -1.013607,5.173674c0.597618,1.651638 2.062368,2.931384 3.937248,3.434532c0.404271,0.10938 0.597618,0.125787 1.488186,0.125787c1.206954,0 1.58193,-0.076566 2.548665,-0.519555c2.888487,-1.318029 4.048569,-4.692402 2.513511,-7.322991c-0.931581,-1.591479 -2.57796,-2.608713 -4.529007,-2.794659c-0.333963,-0.027345 -0.621054,-0.049221 -0.64449,-0.049221c-0.017577,0.005469 -0.257796,0.032814 -0.533169,0.060159zm1.05462,2.57043c0.105462,0.071097 0.251937,0.196884 0.316386,0.278919c0.11718,0.147663 0.123039,0.224229 0.123039,1.432878c0,1.20318 -0.005859,1.285215 -0.123039,1.427409c-0.216783,0.27345 -0.421848,0.377361 -0.726516,0.377361c-0.328104,0 -0.550746,-0.125787 -0.732375,-0.415644c-0.105462,-0.169539 -0.11718,-0.284388 -0.11718,-1.427409c0,-1.170366 0.005859,-1.246932 0.123039,-1.394595c0.187488,-0.235167 0.480438,-0.399237 0.726516,-0.399237c0.128898,0 0.298809,0.049221 0.41013,0.120318zm-0.023436,4.233006c0.767529,0.339078 0.474579,1.465692 -0.374976,1.465692c-0.492156,0 -0.831978,-0.32814 -0.831978,-0.793005c0,-0.574245 0.632772,-0.92973 1.206954,-0.672687z"/>
 </g>
</svg>