<svg width="30" height="28" xmlns="http://www.w3.org/2000/svg" preserveAspectRatio="xMidYMid meet">
 <metadata>Created by potrace 1.16, written by Peter Selinger 2001-2019</metadata>

 <g>
  <title>background</title>
  <rect fill="none" id="canvas_background" height="402" width="582" y="-1" x="-1"/>
 </g>
 <g>
  <title>Layer 1</title>
  <path fill="#b2b2b2" id="svg_2" d="m0.79586,0.056562c-0.296917,0.094147 -0.541797,0.309774 -0.676481,0.595252c-0.27549,0.583104 -0.033671,1.257318 0.554041,1.530648l0.168355,0.078962l1.300925,0l1.300925,0l0.168355,-0.078962c0.211209,-0.097184 0.36732,-0.230812 0.480577,-0.406958l0.085708,-0.136665l0.860141,0l0.863202,0l0.018366,0.066814c0.009183,0.039481 1.031557,4.03921 2.271262,8.892336c1.242766,4.853126 2.268201,8.834633 2.280445,8.846781c0.009183,0.015185 0.094891,-0.006074 0.18366,-0.048592c0.388747,-0.176146 0.881568,-0.312811 1.337657,-0.370514c0.131623,-0.018222 0.159172,-0.03037 0.146928,-0.069851c-0.009183,-0.03037 -1.07135,-4.178912 -2.363092,-9.223369c-1.291742,-5.044457 -2.363092,-9.180851 -2.381458,-9.192999c-0.018366,-0.012148 -0.768311,-0.024296 -1.665184,-0.024296l-1.634574,0l-0.131623,-0.145776c-0.073464,-0.078962 -0.205087,-0.185257 -0.296917,-0.233849l-0.162233,-0.09111l-1.31623,-0.006074c-0.725457,-0.003037 -1.349901,0.006074 -1.392755,0.018222z"/>
  <path fill="#b2b2b2" id="svg_3" d="m16.012091,5.040279c-2.837547,0.795694 -5.160846,1.460797 -5.166968,1.475982c-0.009183,0.033407 1.625391,6.441477 1.649879,6.46881c0.018366,0.015185 10.303326,-2.85478 10.333936,-2.88515c0.015305,-0.015185 -1.610086,-6.414144 -1.643757,-6.474884c-0.012244,-0.021259 -1.812112,0.470735 -5.17309,1.415242z"/>
  <path fill="#b2b2b2" id="svg_4" d="m27.67144,9.978442c-0.312222,0.088073 -3.780335,1.06295 -7.710659,2.165381c-3.927263,1.102431 -7.150496,2.010494 -7.156618,2.019605c-0.015305,0.015185 1.264193,5.047494 1.294803,5.096086c0.009183,0.012148 0.033671,0.024296 0.055098,0.024296c0.073464,0 0.67342,0.306737 0.921361,0.470735c0.134684,0.088073 0.345893,0.245997 0.465272,0.346218c0.12244,0.103258 0.235697,0.185257 0.254063,0.185257c0.027549,0 0.606078,-0.160961 5.433275,-1.515463c8.549373,-2.396193 8.75446,-2.453896 8.751399,-2.502488c-0.003061,-0.024296 -0.373442,-1.491167 -0.82647,-3.252627c-0.655054,-2.566265 -0.829531,-3.207072 -0.866263,-3.204035c-0.027549,0.003037 -0.303039,0.075925 -0.615261,0.167035z"/>
  <path fill="#b2b2b2" id="svg_5" d="m28.268335,18.682484c-2.219225,0.622585 -2.855913,0.801768 -5.555715,1.557981c-4.521097,1.266429 -5.797534,1.627832 -5.806717,1.636943c-0.006122,0.003037 0.039793,0.124517 0.097952,0.270293c0.143867,0.355329 0.257124,0.78962 0.296917,1.166208c0.021427,0.173109 0.048976,0.312811 0.064281,0.312811c0.012244,0 0.529553,-0.142739 1.147875,-0.315848c0.618322,-0.173109 1.735587,-0.48592 2.485532,-0.69851c6.15261,-1.721979 8.821802,-2.475155 8.837107,-2.49034c0.012244,-0.012148 -0.468333,-1.718942 -0.48976,-1.737164c-0.003061,-0.003037 -0.486699,0.130591 -1.077472,0.297626z"/>
  <path fill="#b2b2b2" id="svg_6" d="m12.097072,20.13417c-1.267254,0.176146 -2.307994,0.938433 -2.886523,2.110715c-0.321405,0.655992 -0.443845,1.229985 -0.413235,1.958865c0.039793,1.008284 0.394869,1.876866 1.059106,2.587524c1.450914,1.557981 3.872165,1.567092 5.335323,0.024296c0.743823,-0.783546 1.120326,-1.79183 1.083594,-2.900335c-0.015305,-0.479846 -0.06122,-0.753176 -0.195904,-1.15406c-0.388747,-1.175319 -1.303986,-2.107678 -2.427373,-2.469081c-0.462211,-0.15185 -1.126448,-0.218664 -1.554988,-0.157924zm0.884629,2.356712c0.27549,0.081999 0.45915,0.191331 0.67342,0.403921c0.33671,0.33407 0.498943,0.725843 0.498943,1.217837c0,0.756213 -0.462211,1.406131 -1.153997,1.615684c-0.174477,0.051629 -0.263246,0.06074 -0.52037,0.048592c-0.358137,-0.018222 -0.48976,-0.06074 -0.79586,-0.261182c-0.321405,-0.209553 -0.575468,-0.567919 -0.679542,-0.968803c-0.058159,-0.224738 -0.058159,-0.646881 0,-0.871619c0.149989,-0.570956 0.64281,-1.078135 1.166241,-1.199615c0.198965,-0.045555 0.627505,-0.039481 0.811165,0.015185z"/>
 </g>
</svg>