<svg width="32" height="32" xmlns="http://www.w3.org/2000/svg">
 <title>dropbox</title>

 <g>
  <title>background</title>
  <rect fill="none" id="canvas_background" height="402" width="582" y="-1" x="-1"/>
 </g>
 <g>
  <title>Layer 1</title>
  <path fill="#b2b2b2" id="svg_1" d="m23,1l-7,6l9,6l7,-6l-9,-6z"/>
  <path fill="#b2b2b2" id="svg_2" d="m16,7l-7,-6l-9,6l7,6l9,-6z"/>
  <path fill="#b2b2b2" id="svg_3" d="m25,13l7,6l-9,5l-7,-6l9,-5z"/>
  <path fill="#b2b2b2" id="svg_4" d="m16,18l-9,-5l-7,6l9,5l7,-6z"/>
  <path fill="#b2b2b2" id="svg_5" d="m22.755,26.424l-6.755,-5.79l-6.755,5.79l-4.245,-2.358l0,2.934l11,5l11,-5l0,-2.934l-4.245,2.358z"/>
 </g>
</svg>